<svg version="1.1" preserveAspectRatio="none" xmlns="http://www.w3.org/2000/svg" width="500" height="500" viewBox="0 0 500 500"><rect width="100%" height="100%" fill="#FFFFFF" fill-opacity="1"/><svg viewBox="74.9227 130.8563 360.4191 210" width="333" height="194.02412358279568" x="83.5px" y="152.9879px" xmlns="http://www.w3.org/2000/svg" xmlns:xlink="http://www.w3.org/1999/xlink" preserveAspectRatio="none"><defs></defs><style>.companyName {fill:#285380;fill-opacity:1;}.icon3 {fill:#E7A0AE;fill-opacity:1;}.icon3-str {stroke:#E7A0AE;stroke-opacity:1;}.shape {fill:#F9E9ED;fill-opacity:1;}</style><g opacity="1" transform="rotate(0 137.9877 130.8563)">
<svg width="234.2892" height="210" x="137.9877" y="130.8563" version="1.1" preserveAspectRatio="none" viewBox="5.976081848144531 15.80335807800293 188.02392578125 168.53155517578125">
  <g transform="matrix(1 0 0 1 0 0)" ><g><path d="M91.052 173.189C119.033 208.059 194 154.166 194 107.109 194 72.067 160 19 113.041 16 71.147 13.324 9.093 38.026 6.094 86.084S58 132 91.052 173.189z" data-color="1" class="shape"></path></g></g>
</svg>
</g><g opacity="1" transform="rotate(0 74.9227 166.8563)">
<svg width="360.4191" height="140" x="74.9227" y="166.8563" version="1.1" preserveAspectRatio="none" viewBox="-1.32 -32.68 190.6 74.03999999999999">
  <g transform="matrix(1 0 0 1 0 0)" class="companyName"><path id="id-D6z1nYkh12" d="M23.48-4.28L23.68-4.84L24.60-4.84L24.44-4.32Q23.72-1.80 22.62-0.62Q21.52 0.56 19.68 0.56L19.68 0.56Q17.80 0.56 16.88-0.56Q15.96-1.68 16.08-3.28L16.08-3.28L16.40-7.76Q16.44-8.24 16.44-9.04L16.44-9.04Q16.44-10.72 15.84-11.64Q15.24-12.56 13.66-12.98Q12.08-13.40 9.08-13.44L9.08-13.44L6.64-4.24Q6.28-3.04 6.28-2.28L6.28-2.28Q6.28-1.48 6.86-1.16Q7.44-0.84 9-0.80L9-0.80L8.84 0Q7-0.12 3.88-0.12L3.88-0.12Q0.36-0.12-1.32 0L-1.32 0L-1.16-0.80Q0.28-0.88 1-1.12Q1.72-1.36 2.14-2.04Q2.56-2.72 2.96-4.24L2.96-4.24L8.24-24.08Q8.60-25.44 8.60-25.96L8.60-25.96Q8.60-26.80 8-27.14Q7.40-27.48 5.88-27.52L5.88-27.52L6.08-28.32Q7.68-28.20 11-28.20L11-28.20Q12.92-28.20 13.88-28.24L13.88-28.24L16.84-28.28Q20.76-28.28 22.78-26.78Q24.80-25.28 24.80-22.64L24.80-22.64Q24.80-19.36 21.96-16.96Q19.12-14.56 14.36-13.76L14.36-13.76Q14.88-13.72 15.76-13.56L15.76-13.56Q18.12-13.12 19.16-12.16Q20.20-11.20 20.20-9.08L20.20-9.08Q20.20-8.56 20.16-8.28L20.16-8.28L19.84-4.20Q19.80-3.92 19.80-3.36L19.80-3.36Q19.80-0.92 21.08-0.92L21.08-0.92Q21.76-0.92 22.32-1.74Q22.88-2.56 23.48-4.28L23.48-4.28ZM11.92-24.08L9.32-14.24L10.52-14.24Q15.92-14.24 18.34-16.60Q20.76-18.96 20.76-22.88L20.76-22.88Q20.76-25.24 19.56-26.38Q18.36-27.52 15.68-27.52L15.68-27.52Q14.48-27.52 13.80-27.22Q13.12-26.92 12.70-26.20Q12.28-25.48 11.92-24.08L11.92-24.08Z M46.72-3.36Q46.84-2.04 47.40-1.44Q47.96-0.84 48.68-0.80L48.68-0.80L48.52 0Q46.92-0.12 44.16-0.12L44.16-0.12Q40.92-0.12 39.36 0L39.36 0L39.52-0.80Q40.88-0.88 41.62-1.14Q42.36-1.40 42.68-2.10Q43-2.80 42.96-4.16L42.96-4.16L42.60-10.72L32.76-10.72L29.76-6.48Q27.88-3.84 27.88-2.52L27.88-2.52Q27.88-0.88 30.84-0.80L30.84-0.80L30.64 0Q28.44-0.12 26.08-0.12L26.08-0.12Q24.36-0.12 23.08 0L23.08 0L23.28-0.80Q25.12-1.20 27.28-4.28L27.28-4.28L44.52-28.52L45.12-28.52L46.72-3.36ZM33.32-11.52L42.56-11.52L41.88-23.64L33.32-11.52Z M84.20-30.16Q85.48-30.16 86.04-29.60Q86.60-29.04 86.60-28.12L86.60-28.12Q86.60-27.04 85.96-26.14Q85.32-25.24 84.24-25.24L84.24-25.24Q83.44-25.24 83.08-25.70Q82.72-26.16 82.72-26.80L82.72-26.80Q82.72-27.44 83.08-28.12Q83.44-28.80 84-29.32L84-29.32L83.88-29.32Q81.92-29.28 80.60-27.28L80.60-27.28Q78.84-24.64 76.92-17.98Q75-11.32 72.56 0.20L72.56 0.20L71.68 0.20L62.56-25.56Q60.60-15.52 58.86-8.60Q57.12-1.68 55.52 0.44L55.52 0.44Q54.64 1.60 53.66 2.28Q52.68 2.96 51.24 2.96L51.24 2.96Q48.84 2.96 48.84 0.88L48.84 0.88Q48.84-0.20 49.48-1.08Q50.12-1.96 51.20-1.96L51.20-1.96Q52-1.96 52.36-1.50Q52.72-1.04 52.72-0.40L52.72-0.40Q52.72 0.24 52.36 0.92Q52 1.60 51.44 2.12L51.44 2.12L51.56 2.12Q53.60 2.08 54.88 0.04L54.88 0.04Q56.36-2.32 57.96-8.40Q59.56-14.48 61.44-24.08L61.44-24.08Q61.68-25.24 61.68-25.88L61.68-25.88Q61.68-26.84 61.04-27.14Q60.40-27.44 58.60-27.52L58.60-27.52L58.80-28.32Q60.08-28.20 62.36-28.20L62.36-28.20Q64.20-28.20 65.60-28.32L65.60-28.32L73.16-6.20Q74.88-13.88 76.52-19.50Q78.16-25.12 79.88-27.60L79.88-27.60Q81.64-30.16 84.20-30.16L84.20-30.16Z M112-29.20Q112.24-28.96 112.24-28.72L112.24-28.72Q112.24-27.76 109.32-26.64L109.32-26.64Q103.72-22.92 101-14.64L101-14.64L104.96-14.64L104.84-13.84L100.76-13.84Q100.44-12.80 100.32-12.28L100.32-12.28L97.84-2.60Q96.68 1.88 94.32 4.70Q91.96 7.52 88.40 7.52L88.40 7.52Q86.52 7.52 85.42 6.94Q84.32 6.36 84.32 5.24L84.32 5.24Q84.32 4.36 84.96 3.66Q85.60 2.96 86.52 2.96L86.52 2.96Q87.24 2.96 87.72 3.44Q88.20 3.92 88.20 4.64L88.20 4.64Q88.20 5.28 87.74 5.82Q87.28 6.36 86.60 6.68L86.60 6.68Q87.20 6.88 88 6.88L88 6.88Q89.80 6.88 90.98 5.52Q92.16 4.16 92.86 2.12Q93.56 0.08 94.44-3.52L94.44-3.52Q94.60-4.28 95-5.80L95-5.80L96.20-10.48Q96.72-12.40 97.32-13.84L97.32-13.84L92-13.84L92.12-14.64L97.64-14.64Q99.32-18.28 101.92-20.92Q104.52-23.56 108.64-26.52L108.64-26.52Q104-24.12 100.72-24.12L100.72-24.12Q99.44-24.12 98.38-24.40Q97.32-24.68 95.84-25.24L95.84-25.24Q94.28-25.80 93.24-26.08Q92.20-26.36 90.88-26.36L90.88-26.36Q89.60-26.36 88.94-25.72Q88.28-25.08 88.28-23.92L88.28-23.92Q88.28-21.36 91.24-20.80L91.24-20.80L91.12-20Q89.24-20.32 87.98-21.50Q86.72-22.68 86.72-24.92L86.72-24.92Q86.72-26.96 87.96-28.26Q89.20-29.56 91.36-29.56L91.36-29.56Q92.84-29.56 94.02-29Q95.20-28.44 96.68-27.40L96.68-27.40Q98.20-26.32 99.34-25.80Q100.48-25.28 101.88-25.28L101.88-25.28Q103.72-25.28 105.16-25.68Q106.60-26.08 108.96-27.08L108.96-27.08Q110.48-29.40 111.48-29.40L111.48-29.40Q111.80-29.40 112-29.20L112-29.20Z M125.68-28.20Q131.28-28.20 133.64-28.32L133.64-28.32Q132.60-25.44 132.12-23.60L132.12-23.60Q131.68-22.16 131.56-21.12L131.56-21.12L130.64-21.12Q131-23.44 131-24.32L131-24.32Q131-26.04 130.12-26.72Q129.24-27.40 126.96-27.40L126.96-27.40L124.04-27.40Q122.60-27.40 121.90-27.18Q121.20-26.96 120.76-26.28Q120.32-25.60 119.92-24.08L119.92-24.08L117.40-14.64L120.04-14.64Q121.44-14.64 122.36-15.30Q123.28-15.96 123.80-16.84Q124.32-17.72 124.84-19.08L124.84-19.08Q124.96-19.48 125.16-19.92L125.16-19.92L126.08-19.92Q125.24-17.28 124.68-15.16L124.68-15.16L124.44-14.24Q123.88-12.12 123.16-8.56L123.16-8.56L122.24-8.56L122.36-9.36Q122.40-9.64 122.48-10.24Q122.56-10.84 122.56-11.28L122.56-11.28Q122.56-12.48 121.94-13.16Q121.32-13.84 119.80-13.84L119.80-13.84L117.16-13.84L114.60-4.24Q114.24-3 114.24-2.28L114.24-2.28Q114.24-1.44 114.84-1.18Q115.44-0.92 116.96-0.92L116.96-0.92L119.88-0.92Q122.36-0.92 123.84-1.58Q125.32-2.24 126.30-3.70Q127.28-5.16 128.32-8L128.32-8L129.24-8Q128.80-6.84 128.36-5.12L128.36-5.12Q127.72-2.88 127.28 0L127.28 0Q124.56-0.12 118.12-0.12L118.12-0.12Q110.44-0.12 106.56 0L106.56 0L106.76-0.80Q108.20-0.88 108.90-1.12Q109.60-1.36 110.04-2.04Q110.48-2.72 110.88-4.24L110.88-4.24L116.20-24.08Q116.56-25.36 116.56-26.04L116.56-26.04Q116.56-26.88 115.98-27.16Q115.40-27.44 113.88-27.52L113.88-27.52L114.08-28.32Q118-28.20 125.68-28.20L125.68-28.20Z M150.08-28.20Q155.68-28.20 158.04-28.32L158.04-28.32Q157-25.44 156.52-23.60L156.52-23.60Q156.08-22.16 155.96-21.12L155.96-21.12L155.04-21.12Q155.40-23.44 155.40-24.32L155.40-24.32Q155.40-26.04 154.52-26.72Q153.64-27.40 151.36-27.40L151.36-27.40L148.44-27.40Q147-27.40 146.30-27.18Q145.60-26.96 145.16-26.28Q144.72-25.60 144.32-24.08L144.32-24.08L141.80-14.64L144.44-14.64Q145.84-14.64 146.76-15.30Q147.68-15.96 148.20-16.84Q148.72-17.72 149.24-19.08L149.24-19.08Q149.36-19.48 149.56-19.92L149.56-19.92L150.48-19.92Q149.64-17.28 149.08-15.16L149.08-15.16L148.84-14.24Q148.28-12.12 147.56-8.56L147.56-8.56L146.64-8.56L146.76-9.36Q146.80-9.64 146.88-10.24Q146.96-10.84 146.96-11.28L146.96-11.28Q146.96-12.48 146.34-13.16Q145.72-13.84 144.20-13.84L144.20-13.84L141.56-13.84L139-4.24Q138.64-3 138.64-2.28L138.64-2.28Q138.64-1.44 139.24-1.18Q139.84-0.92 141.36-0.92L141.36-0.92L144.28-0.92Q146.76-0.92 148.24-1.58Q149.72-2.24 150.70-3.70Q151.68-5.16 152.72-8L152.72-8L153.64-8Q153.20-6.84 152.76-5.12L152.76-5.12Q152.12-2.88 151.68 0L151.68 0Q148.96-0.12 142.52-0.12L142.52-0.12Q134.84-0.12 130.96 0L130.96 0L131.16-0.80Q132.60-0.88 133.30-1.12Q134.00-1.36 134.44-2.04Q134.88-2.72 135.28-4.24L135.28-4.24L140.60-24.08Q140.96-25.36 140.96-26.04L140.96-26.04Q140.96-26.88 140.38-27.16Q139.80-27.44 138.28-27.52L138.28-27.52L138.48-28.32Q142.40-28.20 150.08-28.20L150.08-28.20Z M187.48-32.68Q188.36-32.68 188.82-32.14Q189.28-31.60 189.28-30.76L189.28-30.76Q189.28-29.88 188.76-29.14Q188.24-28.40 187.40-27.88L187.40-27.88Q185.28-26.56 181.08-26.56L181.08-26.56Q179.32-26.56 177-26.84L177-26.84L171.08-4.64Q170.72-3.40 170.72-2.60L170.72-2.60Q170.72-1.60 171.46-1.22Q172.20-0.84 174.08-0.80L174.08-0.80L173.92 0Q171.84-0.12 167.96-0.12L167.96-0.12Q164.04-0.12 162.12 0L162.12 0L162.28-0.80Q163.96-0.88 164.90-1.22Q165.84-1.56 166.36-2.34Q166.88-3.12 167.36-4.64L167.36-4.64L173.40-27.32Q170.16-27.76 168.24-27.76L168.24-27.76Q164.76-27.76 163.76-27.08L163.76-27.08Q164.08-26.64 164.28-26Q164.48-25.36 164.48-24.76L164.48-24.76Q164.48-23.84 163.96-23.14Q163.44-22.44 162.48-22.44L162.48-22.44Q161.64-22.44 161.18-22.98Q160.72-23.52 160.72-24.44L160.72-24.44Q160.72-26.52 162.84-27.56L162.84-27.56Q164.72-28.48 168.20-28.48L168.20-28.48Q169.80-28.48 171.24-28.34Q172.68-28.20 174.88-27.92L174.88-27.92Q176.96-27.64 178.38-27.50Q179.80-27.36 181.36-27.36L181.36-27.36Q183.16-27.36 184.36-27.56Q185.56-27.76 186.52-28.24L186.52-28.24Q185.52-29.24 185.52-30.48L185.52-30.48Q185.52-31.36 186.02-32.02Q186.52-32.68 187.48-32.68L187.48-32.68Z M52.16 12.60Q53.92 12.60 55.20 12.48L55.20 12.48L55 13.28Q52.88 13.72 50.96 16.76L50.96 16.76L35.20 41L34.60 41L31.44 15.84Q31.28 14.52 30.66 13.92Q30.04 13.32 29.36 13.28L29.36 13.28L29.56 12.48Q31.12 12.60 33.88 12.60L33.88 12.60Q36.96 12.60 38.68 12.48L38.68 12.48L38.48 13.28Q37.20 13.36 36.54 13.52Q35.88 13.68 35.54 14.16Q35.20 14.64 35.20 15.64L35.20 15.64Q35.20 15.92 35.28 16.64L35.28 16.64L37.56 35.96L48.64 18.96Q50.36 16.28 50.36 15.00L50.36 15.00Q50.36 14.12 49.62 13.72Q48.88 13.32 47.40 13.28L47.40 13.28L47.60 12.48Q49.80 12.60 52.16 12.60L52.16 12.60Z M68.52 12.60Q74.12 12.60 76.48 12.48L76.48 12.48Q75.44 15.36 74.96 17.20L74.96 17.20Q74.52 18.64 74.40 19.68L74.40 19.68L73.48 19.68Q73.84 17.36 73.84 16.48L73.84 16.48Q73.84 14.76 72.96 14.08Q72.08 13.40 69.80 13.40L69.80 13.40L66.88 13.40Q65.44 13.40 64.74 13.62Q64.04 13.84 63.60 14.52Q63.16 15.20 62.76 16.72L62.76 16.72L60.24 26.16L62.88 26.16Q64.28 26.16 65.20 25.50Q66.12 24.84 66.64 23.96Q67.16 23.08 67.68 21.72L67.68 21.72Q67.80 21.32 68 20.88L68 20.88L68.92 20.88Q68.08 23.52 67.52 25.64L67.52 25.64L67.28 26.56Q66.72 28.68 66 32.24L66 32.24L65.08 32.24L65.20 31.44Q65.24 31.16 65.32 30.56Q65.40 29.96 65.40 29.52L65.40 29.52Q65.40 28.32 64.78 27.64Q64.16 26.96 62.64 26.96L62.64 26.96L60 26.96L57.44 36.56Q57.08 37.80 57.08 38.52L57.08 38.52Q57.08 39.36 57.68 39.62Q58.28 39.88 59.80 39.88L59.80 39.88L62.72 39.88Q65.20 39.88 66.68 39.22Q68.16 38.56 69.14 37.10Q70.12 35.64 71.16 32.80L71.16 32.80L72.08 32.80Q71.64 33.96 71.20 35.68L71.20 35.68Q70.56 37.92 70.12 40.80L70.12 40.80Q67.40 40.68 60.96 40.68L60.96 40.68Q53.28 40.68 49.40 40.80L49.40 40.80L49.60 40Q51.04 39.92 51.74 39.68Q52.44 39.44 52.88 38.76Q53.32 38.08 53.72 36.56L53.72 36.56L59.04 16.72Q59.40 15.44 59.40 14.76L59.40 14.76Q59.40 13.92 58.82 13.64Q58.24 13.36 56.72 13.28L56.72 13.28L56.92 12.48Q60.84 12.60 68.52 12.60L68.52 12.60Z M98.68 36.52L98.88 35.96L99.80 35.96L99.64 36.48Q98.92 39 97.82 40.18Q96.72 41.36 94.88 41.36L94.88 41.36Q93.00 41.36 92.08 40.24Q91.16 39.12 91.28 37.52L91.28 37.52L91.60 33.04Q91.64 32.56 91.64 31.76L91.64 31.76Q91.64 30.08 91.04 29.16Q90.44 28.24 88.86 27.82Q87.28 27.40 84.28 27.36L84.28 27.36L81.84 36.56Q81.48 37.76 81.48 38.52L81.48 38.52Q81.48 39.32 82.06 39.64Q82.64 39.96 84.20 40L84.20 40L84.04 40.80Q82.20 40.68 79.08 40.68L79.08 40.68Q75.56 40.68 73.88 40.80L73.88 40.80L74.04 40Q75.48 39.92 76.20 39.68Q76.92 39.44 77.34 38.76Q77.76 38.08 78.16 36.56L78.16 36.56L83.44 16.72Q83.80 15.36 83.80 14.84L83.80 14.84Q83.80 14.00 83.20 13.66Q82.60 13.32 81.08 13.28L81.08 13.28L81.28 12.48Q82.88 12.60 86.20 12.60L86.20 12.60Q88.12 12.60 89.08 12.56L89.08 12.56L92.04 12.52Q95.96 12.52 97.98 14.02Q100.00 15.52 100.00 18.16L100.00 18.16Q100.00 21.44 97.16 23.84Q94.32 26.24 89.56 27.04L89.56 27.04Q90.08 27.08 90.96 27.24L90.96 27.24Q93.32 27.68 94.36 28.64Q95.40 29.60 95.40 31.72L95.40 31.72Q95.40 32.24 95.36 32.52L95.36 32.52L95.04 36.60Q95.00 36.88 95.00 37.44L95.00 37.44Q95.00 39.88 96.28 39.88L96.28 39.88Q96.96 39.88 97.52 39.06Q98.08 38.24 98.68 36.52L98.68 36.52ZM87.12 16.72L84.52 26.56L85.72 26.56Q91.12 26.56 93.54 24.20Q95.96 21.84 95.96 17.92L95.96 17.92Q95.96 15.56 94.76 14.42Q93.56 13.28 90.88 13.28L90.88 13.28Q89.68 13.28 89.00 13.58Q88.32 13.88 87.90 14.60Q87.48 15.32 87.12 16.72L87.12 16.72Z M132.16 12.60L134.08 12.60Q137.16 12.60 139.08 12.48L139.08 12.48L138.88 13.28Q137.40 13.36 136.70 13.60Q136 13.84 135.58 14.52Q135.16 15.20 134.76 16.72L134.76 16.72L129.48 36.56Q129.16 37.92 129.16 38.48L129.16 38.48Q129.16 39.36 129.74 39.64Q130.32 39.92 131.84 40L131.84 40L131.68 40.80Q129.84 40.68 126.72 40.68L126.72 40.68Q123.20 40.68 121.52 40.80L121.52 40.80L121.68 40Q123.16 39.92 123.86 39.68Q124.56 39.44 124.98 38.76Q125.40 38.08 125.80 36.56L125.80 36.56L131.60 15.00L115 41L114.12 41L111.40 14.68L105.72 36.16Q105.40 37.52 105.40 38.16L105.40 38.16Q105.40 39.16 106.06 39.54Q106.72 39.92 108.40 40L108.40 40L108.20 40.80Q106.84 40.68 104.16 40.68L104.16 40.68Q101.80 40.68 100.40 40.80L100.40 40.80L100.60 40Q102 39.92 102.76 39.58Q103.52 39.24 103.96 38.48Q104.40 37.72 104.80 36.16L104.80 36.16L110 16.72Q110.32 15.36 110.32 14.80L110.32 14.80Q110.32 13.92 109.74 13.64Q109.16 13.36 107.64 13.28L107.64 13.28L107.84 12.48Q109.12 12.60 111.40 12.60L111.40 12.60Q113.52 12.60 114.92 12.48L114.92 12.48L117.12 36.20L132.16 12.60Z M156.64 37.44Q156.76 38.76 157.32 39.36Q157.88 39.96 158.60 40L158.60 40L158.44 40.80Q156.84 40.68 154.08 40.68L154.08 40.68Q150.84 40.68 149.28 40.80L149.28 40.80L149.44 40Q150.80 39.92 151.54 39.66Q152.28 39.40 152.60 38.70Q152.92 38 152.88 36.64L152.88 36.64L152.52 30.08L142.68 30.08L139.68 34.32Q137.80 36.96 137.80 38.28L137.80 38.28Q137.80 39.92 140.76 40L140.76 40L140.56 40.80Q138.36 40.68 136.00 40.68L136.00 40.68Q134.28 40.68 133.00 40.80L133.00 40.80L133.20 40Q135.04 39.60 137.20 36.52L137.20 36.52L154.44 12.28L155.04 12.28L156.64 37.44ZM143.24 29.28L152.48 29.28L151.80 17.16L143.24 29.28Z"/></g>
</svg>
</g></svg></svg>